<svg xmlns="http://www.w3.org/2000/svg" viewBox="0 0 188.776 144.603"><defs><style>.a{fill:#ed0000;}.b{fill:none;}.c{fill:#006;}.d{fill:#fff;}</style></defs><g transform="translate(95.237 13.539)"><rect class="a" width="28.491" height="9.927" transform="translate(0 14.736)"/><rect class="a" width="28.491" height="9.927" transform="translate(33.454 44.13)"/><rect class="a" width="28.491" height="9.927" transform="translate(0.096 44.13)"/><rect class="a" width="28.491" height="9.927" transform="translate(16.849 29.42)"/><rect class="a" width="11.906" height="9.927" transform="translate(0.096 29.42)"/><rect class="a" width="28.491" height="9.927" transform="translate(50.207 59.255)"/><rect class="a" width="28.491" height="9.927" transform="translate(16.849 59.255)"/><rect class="a" width="11.906" height="9.927" transform="translate(0.096 59.255)"/><rect class="a" width="11.906" height="9.927" transform="translate(0.709)"/></g><path class="b" d="M50.03,119.757H211.1l-80.535-69.6Z" transform="translate(-36.943 -37.037)"/><path class="c" d="M122.334,116.1V45.208L41.034,116.1Z" transform="translate(-30.3 -33.382)"/><rect class="d" width="2.86" height="72.069" transform="translate(94.291 11.367)"/><path class="c" d="M94.5.1,94.49.12l-.1-.12L0,82.721H14.971l79.418-69.6,79.417,69.6h14.97Z"/><path class="d" d="M116.364,39.224,195.17,107.1l7.769.239L116.5,32.6,29.789,107.182l7.661.306Z" transform="translate(-21.997 -24.075)"/><g transform="translate(0.005 98.513)"><path class="c" d="M3.833,394.124v.5a6.451,6.451,0,0,0,.763,3.656,2.644,2.644,0,0,0,2.166,1,2.626,2.626,0,0,0,2.215-1.063,7.285,7.285,0,0,0,.788-3.956V379.266H13.58v14.758c0,2.028-.1,4.986-1.55,7.047-1.551,2.16-3.766,2.127-5.243,2.127-1.6,0-3.84-.033-5.317-2.094C.141,399.242.018,396.517.018,394.423v-.3H3.833Z" transform="translate(-0.018 -378.568)"/><path class="c" d="M61.514,402.533H57.5l7.778-23.267h3.864l7.778,23.267H72.91l-1.748-5.351H63.237Zm8.713-8.775L67.2,384.085l-2.978,9.673h6.006Z" transform="translate(-42.465 -378.567)"/><path class="c" d="M151.711,379.266h4.75l-8.2,9.772,8.664,13.462-4.677.033L145.705,391.9l-2.535,3.091v7.545h-3.815V379.266h3.815v10.47Z" transform="translate(-102.906 -378.568)"/><path class="c" d="M224.24,380.114c1.575,1.961,2.634,4.82,2.634,8.908,0,4.62-1.378,7.346-2.634,8.908a9.736,9.736,0,0,1-14.768,0c-1.182-1.5-2.658-4.321-2.658-8.908,0-4.654,1.477-7.446,2.658-8.908a9.235,9.235,0,0,1,7.384-3.39A9.128,9.128,0,0,1,224.24,380.114Zm-11.617,2.56a10.668,10.668,0,0,0-1.748,6.348,10.56,10.56,0,0,0,1.748,6.316,5.229,5.229,0,0,0,4.209,2.06,5.338,5.338,0,0,0,4.233-2.06,10.662,10.662,0,0,0,1.723-6.316,10.916,10.916,0,0,0-1.723-6.348,5.135,5.135,0,0,0-4.233-2.028A5.068,5.068,0,0,0,212.623,382.674Z" transform="translate(-152.719 -376.691)"/><path class="c" d="M305.446,379.266c2.043,0,3.569.3,4.6,1.2a5.445,5.445,0,0,1,1.624,4.288,6.478,6.478,0,0,1-1.009,3.789,4.252,4.252,0,0,1-2.412,1.6v.1a5.365,5.365,0,0,1,3.249,1.928,6.426,6.426,0,0,1,1.083,3.855,7.342,7.342,0,0,1-1.28,4.487c-1.378,1.8-3.741,2.028-5.882,2.028h-9.7V379.266Zm-5.907,9.639h4.8a3.351,3.351,0,0,0,2.585-.8,3.178,3.178,0,0,0,.861-2.426,3.056,3.056,0,0,0-.787-2.26,3.2,3.2,0,0,0-2.412-.7h-5.046Zm0,10.171h5.046a4.154,4.154,0,0,0,2.9-.732,3.426,3.426,0,0,0,1.034-2.758,3.488,3.488,0,0,0-1.009-2.693c-.3-.266-1.034-.731-3.027-.731h-4.948Z" transform="translate(-218.371 -378.568)"/><path class="c" d="M386.534,380.114c1.575,1.961,2.634,4.82,2.634,8.908,0,4.62-1.379,7.346-2.634,8.908a9.736,9.736,0,0,1-14.768,0c-1.181-1.5-2.658-4.321-2.658-8.908,0-4.654,1.477-7.446,2.658-8.908a9.236,9.236,0,0,1,7.384-3.39A9.127,9.127,0,0,1,386.534,380.114Zm-11.618,2.56a10.668,10.668,0,0,0-1.747,6.348,10.56,10.56,0,0,0,1.747,6.316,5.23,5.23,0,0,0,4.209,2.06,5.339,5.339,0,0,0,4.234-2.06,10.66,10.66,0,0,0,1.723-6.316,10.916,10.916,0,0,0-1.723-6.348,5.135,5.135,0,0,0-4.234-2.028A5.07,5.07,0,0,0,374.917,382.674Z" transform="translate(-272.559 -376.691)"/><path class="c" d="M458.874,402.533h-4.061l-5.169-23.267h4.012l3.273,18.148,4.308-18.148h3.643l4.282,18.148,3.249-18.148h4.012l-5.169,23.267h-4.061l-4.135-18.082Z" transform="translate(-332.027 -378.567)"/><path class="c" d="M559.826,393.084v.133a3.983,3.983,0,0,0,1.3,3.29,5.669,5.669,0,0,0,3.274.9,5.757,5.757,0,0,0,3.052-.7,3.112,3.112,0,0,0,1.28-2.659,2.693,2.693,0,0,0-1.108-2.327,7.5,7.5,0,0,0-2.781-1.064l-2.215-.532c-2.486-.6-4.308-1.1-5.341-2.36a5.876,5.876,0,0,1-1.157-3.889,6.855,6.855,0,0,1,2.338-5.617,8.355,8.355,0,0,1,5.489-1.662c3.593,0,5.218,1.163,5.612,1.462a6.736,6.736,0,0,1,2.437,5.617h-3.889a3.207,3.207,0,0,0-1.329-2.725,5.136,5.136,0,0,0-2.929-.7,4.547,4.547,0,0,0-2.585.665,2.832,2.832,0,0,0-1.3,2.459,2.254,2.254,0,0,0,1.329,2.194,13.3,13.3,0,0,0,3.372,1l1.944.432a8.651,8.651,0,0,1,4.406,1.994,6.574,6.574,0,0,1,1.625,4.753c0,3.257-1.157,5.086-2.338,6.05-1.477,1.2-3.5,1.4-5.439,1.4-2.781,0-4.6-.332-6.006-1.2-2.511-1.562-3-4.421-3-6.814v-.1h3.962Z" transform="translate(-410.462 -376.597)"/><path class="c" d="M644.615,379.266h4.75l-8.2,9.772,8.664,13.462-4.677.033L638.61,391.9l-2.535,3.091v7.545h-3.815V379.266h3.815v10.47Z" transform="translate(-466.873 -378.568)"/><path class="c" d="M710.871,379.266v23.267h-3.815V379.266Z" transform="translate(-522.104 -378.568)"/></g><g transform="translate(0.009 128.844)"><path class="c" d="M.185,507.7a19.292,19.292,0,0,0-.151-2.692H2.949l.114,1.694h.151c.833-1.159,2.84-1.89,5.074-1.89a7.512,7.512,0,0,1,.947.054v1.48a10.437,10.437,0,0,0-1.136-.053c-2.348,0-4.014.838-4.468,2.014a2.194,2.194,0,0,0-.151.731v4.6H.185Z" transform="translate(-0.034 -501.605)"/><path class="c" d="M44.615,509.609c.076,2.122,2.953,3,6.285,3a24.275,24.275,0,0,0,5.074-.445l.568,1.123a29.84,29.84,0,0,1-6.1.535c-5.642,0-9.012-1.747-9.012-4.35s3.256-4.653,8.6-4.653c5.983,0,7.573,2.478,7.573,4.065a2.888,2.888,0,0,1-.114.731Zm9.769-1.123c.038-1-.871-2.549-4.619-2.549-3.37,0-4.847,1.462-5.112,2.549Z" transform="translate(-30.604 -501.604)"/><path class="c" d="M118.593,507.344a14.607,14.607,0,0,0-.151-2.336H121.4l.189,1.426h.076c.909-.82,3.029-1.622,6.058-1.622,2.537,0,6.475.713,6.475,3.673v5.152h-3.332v-4.974c0-1.39-1.1-2.549-4.241-2.549-2.2,0-3.9.731-4.468,1.6a1.208,1.208,0,0,0-.227.731v5.188h-3.332Z" transform="translate(-87.468 -501.603)"/><path class="c" d="M212.2,509.251c0,3.191-4.7,4.582-9.125,4.582-4.96,0-8.785-1.712-8.785-4.439,0-2.888,4.014-4.582,9.088-4.582C208.643,504.812,212.2,506.613,212.2,509.251Zm-14.54.089c0,1.889,2.31,3.316,5.566,3.316,3.181,0,5.566-1.408,5.566-3.351,0-1.462-1.553-3.316-5.49-3.316S197.662,507.7,197.662,509.341Z" transform="translate(-143.477 -501.603)"/><path class="c" d="M272.69,505.562l3.6,4.849a15.761,15.761,0,0,1,1.477,2.211h.114a21.371,21.371,0,0,1,1.553-2.211l3.559-4.849h3.484l-7.194,8.629H276.1l-6.967-8.629Z" transform="translate(-198.739 -502.157)"/><path class="c" d="M349.975,493.526c.038.535-.8.963-2.12.963-1.174,0-2.007-.428-2.007-.963,0-.553.871-.981,2.083-.981C349.18,492.545,349.975,492.973,349.975,493.526Zm-3.711,11.053V495.95H349.6v8.629Z" transform="translate(-255.387 -492.545)"/><path class="c" d="M379.427,509.609c.076,2.122,2.954,3,6.286,3a24.273,24.273,0,0,0,5.074-.445l.568,1.123a29.833,29.833,0,0,1-6.1.535c-5.642,0-9.012-1.747-9.012-4.35s3.256-4.653,8.6-4.653c5.982,0,7.573,2.478,7.573,4.065a2.88,2.88,0,0,1-.114.731Zm9.769-1.123c.038-1-.871-2.549-4.62-2.549-3.37,0-4.847,1.462-5.112,2.549Z" transform="translate(-277.834 -501.604)"/><path class="c" d="M453.405,507.7a19.284,19.284,0,0,0-.151-2.692h2.916l.113,1.694h.151c.833-1.159,2.84-1.89,5.074-1.89a7.514,7.514,0,0,1,.947.054v1.48a10.431,10.431,0,0,0-1.136-.053c-2.347,0-4.014.838-4.468,2.014a2.2,2.2,0,0,0-.152.731v4.6h-3.294V507.7Z" transform="translate(-334.697 -501.605)"/><path class="c" d="M516.18,511.838a14.542,14.542,0,0,0,.151,2.354h-2.953l-.19-1.408h-.076c-.871.7-2.8,1.6-6.059,1.6-2.878,0-6.324-.749-6.324-3.779v-5.046h3.332v4.778c0,1.64,1.06,2.746,4.089,2.746a6.061,6.061,0,0,0,4.392-1.426,1.286,1.286,0,0,0,.3-.8v-5.3h3.332v6.275Z" transform="translate(-369.755 -502.158)"/><path class="c" d="M580.5,507.344a14.624,14.624,0,0,0-.151-2.336H583.3l.19,1.426h.076c.909-.82,3.03-1.622,6.059-1.622,2.537,0,6.475.713,6.475,3.673v5.152h-3.332v-4.974c0-1.39-1.1-2.549-4.241-2.549-2.2,0-3.9.731-4.468,1.6a1.209,1.209,0,0,0-.227.731v5.188H580.5v-6.293Z" transform="translate(-428.544 -501.603)"/><path class="c" d="M673.312,505.009a17.966,17.966,0,0,0-.151,2.371v5.01a3.85,3.85,0,0,1-2.613,3.94,17.833,17.833,0,0,1-6.664,1.034,23.038,23.038,0,0,1-6.1-.713l.833-1.195a19.818,19.818,0,0,0,5.377.678c3.407,0,5.907-.838,5.907-3.013v-.963h-.075c-1.023.8-2.991,1.444-5.831,1.444-4.544,0-7.8-1.818-7.8-4.207,0-2.924,4.052-4.582,8.255-4.582,3.18,0,4.922.784,5.717,1.5h.076l.151-1.3Zm-3.446,3.405a1.163,1.163,0,0,0-.189-.713c-.606-.909-2.234-1.658-4.657-1.658-3.181,0-5.453,1.266-5.453,3.263,0,1.694,1.818,3.1,5.415,3.1,2.045,0,3.9-.606,4.619-1.6a1.456,1.456,0,0,0,.265-.838Z" transform="translate(-484.553 -501.604)"/></g></svg>