<svg xmlns="http://www.w3.org/2000/svg" viewBox="0 0 28.111 56"><defs><style>.a{fill:#006;}</style></defs><g transform="translate(-127.49)"><g transform="translate(127.49)"><path class="a" d="M154.486,0H128.606a1.116,1.116,0,0,0-1.116,1.116V54.884A1.116,1.116,0,0,0,128.606,56h25.881a1.116,1.116,0,0,0,1.116-1.116V1.116A1.116,1.116,0,0,0,154.486,0Zm-7.809,53.769h-4.016V51.426a1.116,1.116,0,0,0-2.231,0v2.343h-4.016v-8.7h10.263v8.7Zm6.693,0h-4.462V43.952a1.116,1.116,0,0,0-1.116-1.116H135.3a1.116,1.116,0,0,0-1.116,1.116v9.817h-4.462V2.231H153.37V53.769Z" transform="translate(-127.49)"/></g><g transform="translate(132.733 4.685)"><g transform="translate(0)"><path class="a" d="M181.115,42.837h-4.574a1.116,1.116,0,0,0-1.116,1.116v7.363a1.116,1.116,0,0,0,1.116,1.116h4.574a1.116,1.116,0,0,0,1.116-1.116V43.953A1.116,1.116,0,0,0,181.115,42.837ZM180,50.2h-2.343V45.068H180Z" transform="translate(-175.426 -42.837)"/></g></g><g transform="translate(143.554 4.685)"><path class="a" d="M280.048,42.837h-4.574a1.116,1.116,0,0,0-1.116,1.116v7.363a1.116,1.116,0,0,0,1.116,1.116h4.574a1.116,1.116,0,0,0,1.116-1.116V43.953A1.116,1.116,0,0,0,280.048,42.837ZM278.933,50.2H276.59V45.068h2.343Z" transform="translate(-274.359 -42.837)"/></g><g transform="translate(132.733 17.068)"><g transform="translate(0)"><path class="a" d="M181.115,156.048h-4.574a1.116,1.116,0,0,0-1.116,1.116v7.363a1.116,1.116,0,0,0,1.116,1.116h4.574a1.116,1.116,0,0,0,1.116-1.116v-7.363A1.116,1.116,0,0,0,181.115,156.048ZM180,163.411h-2.343v-5.131H180Z" transform="translate(-175.426 -156.048)"/></g></g><g transform="translate(143.554 17.068)"><path class="a" d="M280.048,156.048h-4.574a1.116,1.116,0,0,0-1.116,1.116v7.363a1.116,1.116,0,0,0,1.116,1.116h4.574a1.116,1.116,0,0,0,1.116-1.116v-7.363A1.116,1.116,0,0,0,280.048,156.048Zm-1.116,7.363H276.59v-5.131h2.343Z" transform="translate(-274.359 -156.048)"/></g><g transform="translate(132.733 29.339)"><g transform="translate(0)"><path class="a" d="M181.115,268.239h-4.574a1.116,1.116,0,0,0-1.116,1.116v7.363a1.116,1.116,0,0,0,1.116,1.116h4.574a1.116,1.116,0,0,0,1.116-1.116v-7.363A1.116,1.116,0,0,0,181.115,268.239ZM180,275.6h-2.343V270.47H180Z" transform="translate(-175.426 -268.239)"/></g></g><g transform="translate(143.554 29.339)"><path class="a" d="M280.048,268.239h-4.574a1.116,1.116,0,0,0-1.116,1.116v7.363a1.116,1.116,0,0,0,1.116,1.116h4.574a1.116,1.116,0,0,0,1.116-1.116v-7.363A1.116,1.116,0,0,0,280.048,268.239Zm-1.116,7.363H276.59V270.47h2.343Z" transform="translate(-274.359 -268.239)"/></g><g transform="translate(140.43 46.406)"><g transform="translate(0)"><path class="a" d="M246.917,424.287A1.116,1.116,0,0,0,245.8,425.4v.335a1.116,1.116,0,1,0,2.231,0V425.4A1.116,1.116,0,0,0,246.917,424.287Z" transform="translate(-245.801 -424.287)"/></g></g></g></svg>