<svg xmlns="http://www.w3.org/2000/svg" viewBox="0 0 116.249 116.249"><defs><style>.a{fill:#006;}</style></defs><g transform="translate(45.925 45.925)"><path class="a" d="M202.268,272.592h31.3l39.028-39.028v-31.3Z" transform="translate(-202.268 -202.268)"/></g><g transform="translate(0 21.952)"><path class="a" d="M17.076,96.686,0,113.762v31.3l32.724-32.724Z" transform="translate(0 -96.686)"/></g><g transform="translate(4.876 63.001)"><path class="a" d="M74.725,277.477,21.477,330.725h31.3l37.6-37.6Z" transform="translate(-21.477 -277.477)"/></g><g transform="translate(86.973 104.049)"><path class="a" d="M395.258,458.268l-12.2,12.2h24.4Z" transform="translate(-383.058 -458.268)"/></g><g transform="translate(104.049 86.973)"><path class="a" d="M458.268,395.258l12.2,12.2v-24.4Z" transform="translate(-458.268 -383.058)"/></g><g transform="translate(21.952)"><path class="a" d="M113.762,0,96.686,17.076l15.648,15.648L145.058,0Z" transform="translate(-96.686)"/></g><g transform="translate(0 86.973)"><path class="a" d="M0,383.058v24.4l12.2-12.2Z" transform="translate(0 -383.058)"/></g><g transform="translate(63.001 4.876)"><path class="a" d="M277.477,74.725l15.648,15.648,37.6-37.6v-31.3Z" transform="translate(-277.477 -21.477)"/></g><path class="a" d="M0,0V29.276L29.276,0Z"/><g transform="translate(86.973)"><path class="a" d="M383.058,0l12.2,12.2L407.458,0Z" transform="translate(-383.058)"/></g><g transform="translate(1.427 1.428)"><g transform="translate(0 0)"><rect class="a" width="109.205" height="22.129" transform="translate(0 77.219) rotate(-45)"/></g></g></svg>