<svg xmlns="http://www.w3.org/2000/svg" viewBox="0 0 49.75 33.167"><defs><style>.a{fill:#006;}</style></defs><g transform="translate(0)"><path class="a" d="M45.6,33.167H4.146A4.158,4.158,0,0,1,0,29.021V4.146A4.158,4.158,0,0,1,4.146,0H45.6A4.158,4.158,0,0,1,49.75,4.146V29.021A4.158,4.158,0,0,1,45.6,33.167ZM4.146,2.073A2.079,2.079,0,0,0,2.073,4.146V29.021a2.079,2.079,0,0,0,2.073,2.073H45.6a2.079,2.079,0,0,0,2.073-2.073V4.146A2.079,2.079,0,0,0,45.6,2.073Z"/><g transform="translate(6.251 8.324)"><path class="a" d="M24.655,21.68,6.517,9.864a.922.922,0,0,1-.311-1.347,1.116,1.116,0,0,1,1.451-.311l17,10.986,17.1-10.986A1.049,1.049,0,0,1,42.9,9.968Z" transform="translate(-6.031 -8.031)"/></g><g transform="translate(5.215 18.689)"><path class="a" d="M6.035,26.291a1.28,1.28,0,0,1-.829-.415,1.019,1.019,0,0,1,.311-1.451l9.328-6.219a1.049,1.049,0,1,1,1.14,1.762L6.657,26.187C6.45,26.187,6.243,26.291,6.035,26.291Z" transform="translate(-5.031 -18.031)"/></g><g transform="translate(33.095 18.585)"><path class="a" d="M42.367,26.294a1.473,1.473,0,0,1-.622-.207l-9.328-6.219a1.049,1.049,0,0,1,1.14-1.762l9.328,6.219a1.019,1.019,0,0,1,.311,1.451A1.057,1.057,0,0,1,42.367,26.294Z" transform="translate(-31.931 -17.931)"/></g></g></svg>