<svg xmlns="http://www.w3.org/2000/svg" viewBox="0 0 27.614 48.855"><defs><style>.a{fill:#006;}</style></defs><path class="a" d="M23.365,48.855H4.248A4.261,4.261,0,0,1,0,44.607V4.248A4.261,4.261,0,0,1,4.248,0H23.365a4.261,4.261,0,0,1,4.248,4.248V44.607A4.261,4.261,0,0,1,23.365,48.855ZM25.49,4.248a2.13,2.13,0,0,0-2.124-2.124H4.248A2.13,2.13,0,0,0,2.124,4.248V8.5H25.49Zm0,6.372H2.124V38.234H25.49Zm0,29.738H2.124v4.248a2.13,2.13,0,0,0,2.124,2.124H23.365a2.13,2.13,0,0,0,2.124-2.124Zm-11.683,5.31a2.124,2.124,0,1,1,2.124-2.124A2.13,2.13,0,0,1,13.807,45.669ZM6.372,13.807H8.5a1,1,0,0,1,1.062,1.062v2.124A1,1,0,0,1,8.5,18.055H6.372A1,1,0,0,1,5.31,16.993V14.869A1,1,0,0,1,6.372,13.807Zm0,7.434H8.5A1,1,0,0,1,9.559,22.3v2.124A1,1,0,0,1,8.5,25.49H6.372A1,1,0,0,1,5.31,24.428V22.3A1,1,0,0,1,6.372,21.241Zm0,7.434H8.5a1,1,0,0,1,1.062,1.062v2.124A1,1,0,0,1,8.5,32.924H6.372A1,1,0,0,1,5.31,31.862V29.738A1,1,0,0,1,6.372,28.676Zm6.372-14.869h2.124a1,1,0,0,1,1.062,1.062v2.124a1,1,0,0,1-1.062,1.062H12.745a1,1,0,0,1-1.062-1.062V14.869A1,1,0,0,1,12.745,13.807Zm0,7.434h2.124A1,1,0,0,1,15.931,22.3v2.124a1,1,0,0,1-1.062,1.062H12.745a1,1,0,0,1-1.062-1.062V22.3A1,1,0,0,1,12.745,21.241Zm0,7.434h2.124a1,1,0,0,1,1.062,1.062v2.124a1,1,0,0,1-1.062,1.062H12.745a1,1,0,0,1-1.062-1.062V29.738A1,1,0,0,1,12.745,28.676Zm6.372-14.869h2.124A1,1,0,0,1,22.3,14.869v2.124a1,1,0,0,1-1.062,1.062H19.117a1,1,0,0,1-1.062-1.062V14.869A1,1,0,0,1,19.117,13.807Zm0,7.434h2.124A1,1,0,0,1,22.3,22.3v2.124a1,1,0,0,1-1.062,1.062H19.117a1,1,0,0,1-1.062-1.062V22.3A1,1,0,0,1,19.117,21.241Zm-8.5-16.993h6.372A1,1,0,0,1,18.055,5.31a1,1,0,0,1-1.062,1.062H10.621A1,1,0,0,1,9.559,5.31,1,1,0,0,1,10.621,4.248Z" transform="translate(0)"/></svg>