<svg xmlns="http://www.w3.org/2000/svg" viewBox="0 0 164.448 116.497"><defs><style>.a{fill:#006;}</style></defs><g transform="translate(0 -74.645)"><g transform="translate(0 74.645)"><path class="a" d="M162.789,136.806l-40.557-24.338h-.007l-6.325-3.8,5.852-3.727a3.433,3.433,0,0,0,0-5.783L84.067,75.179a3.433,3.433,0,0,0-3.68,0L42.7,99.161a3.439,3.439,0,0,0,0,5.79l5.852,3.727-6.324,3.8h-.007L1.665,136.813a3.426,3.426,0,0,0-.021,5.865l78.8,47.964a3.468,3.468,0,0,0,1.782.5,3.4,3.4,0,0,0,1.782-.5l78.8-47.964a3.436,3.436,0,0,0-.014-5.872ZM43.661,160.226l-33.609-20.46,33.883-20.33,31.91,20.309Zm38.577-24.544L50.513,115.5l4.516-2.707,25.359,16.143a3.446,3.446,0,0,0,3.687,0l25.373-16.143,4.516,2.707Zm38.556,24.544L88.61,139.746l31.91-20.309,33.883,20.33Z" transform="translate(0 -74.645)"/></g></g></svg>