<svg xmlns="http://www.w3.org/2000/svg" viewBox="0 0 163.101 116.498"><defs><style>.a{fill:#006;}</style></defs><g transform="translate(0 -73.149)"><g transform="translate(0 73.149)"><path class="a" d="M184.077,92.991l20.388,14.562a2.9,2.9,0,0,0,3.384,0l20.388-14.562a2.91,2.91,0,0,0,0-4.739L207.849,73.69a2.914,2.914,0,0,0-3.384,0L184.077,88.253a2.91,2.91,0,0,0,0,4.739Z" transform="translate(-124.607 -73.149)"/><path class="a" d="M274.286,154.62a2.9,2.9,0,0,0,1.22,2.368l20.388,14.563a2.9,2.9,0,0,0,3.384,0l20.388-14.562a2.907,2.907,0,0,0,0-4.736l-20.388-14.562a2.9,2.9,0,0,0-3.384,0l-20.388,14.563A2.9,2.9,0,0,0,274.286,154.62Z" transform="translate(-186.91 -116.759)"/><path class="a" d="M92.648,156.991l20.388,14.563a2.9,2.9,0,0,0,3.384,0l20.388-14.562a2.91,2.91,0,0,0,0-4.739L116.42,137.69a2.914,2.914,0,0,0-3.384,0L92.648,152.253a2.91,2.91,0,0,0,0,4.739Z" transform="translate(-62.303 -116.761)"/><path class="a" d="M207.85,201.689a2.914,2.914,0,0,0-3.384,0l-20.388,14.563a2.91,2.91,0,0,0,0,4.739l20.388,14.563a2.913,2.913,0,0,0,3.384,0l20.388-14.562a2.91,2.91,0,0,0,0-4.739Z" transform="translate(-124.607 -160.373)"/><path class="a" d="M228.238,344.253,207.85,329.69a2.914,2.914,0,0,0-3.384,0l-20.388,14.563a2.91,2.91,0,0,0,0,4.739l20.388,14.562a2.913,2.913,0,0,0,3.384,0l20.388-14.562a2.91,2.91,0,0,0,0-4.739Z" transform="translate(-124.607 -247.598)"/><path class="a" d="M411.1,216.253,390.707,201.69a2.914,2.914,0,0,0-3.384,0l-20.388,14.563a2.91,2.91,0,0,0,0,4.739l20.388,14.563a2.913,2.913,0,0,0,3.384,0L411.1,220.991a2.91,2.91,0,0,0,0-4.739Z" transform="translate(-249.214 -160.374)"/><path class="a" d="M319.666,280.253,299.278,265.69a2.914,2.914,0,0,0-3.384,0l-20.388,14.562a2.91,2.91,0,0,0,0,4.739l20.388,14.562a2.913,2.913,0,0,0,3.384,0l20.388-14.562a2.91,2.91,0,0,0,0-4.739Z" transform="translate(-186.91 -203.986)"/><path class="a" d="M46.6,218.62a2.9,2.9,0,0,0-1.22-2.368L24.992,201.689a2.9,2.9,0,0,0-3.384,0L1.22,216.252a2.907,2.907,0,0,0,0,4.736L21.608,235.55a2.9,2.9,0,0,0,3.384,0L45.38,220.987A2.9,2.9,0,0,0,46.6,218.62Z" transform="translate(0 -160.371)"/><path class="a" d="M138.028,282.62a2.9,2.9,0,0,0-1.22-2.368L116.42,265.689a2.9,2.9,0,0,0-3.384,0L92.648,280.252a2.907,2.907,0,0,0,0,4.736l20.388,14.563a2.9,2.9,0,0,0,3.384,0l20.388-14.563A2.9,2.9,0,0,0,138.028,282.62Z" transform="translate(-62.303 -203.984)"/></g></g></svg>