<svg xmlns="http://www.w3.org/2000/svg" viewBox="0 0 118.069 116.498"><defs><style>.a{fill:#006;}</style></defs><g transform="translate(-7.5 -9.396)"><path class="a" d="M31.995,54.657a22.819,22.819,0,0,0,6.949-1.087L52.289,66.906,66.9,52.293,53.565,38.942a22.715,22.715,0,0,0-5.534-22.93A22.45,22.45,0,0,0,32.055,9.4,22.848,22.848,0,0,0,22.276,11.6a1.557,1.557,0,0,0-.43,2.5L35.887,28.154a5.46,5.46,0,0,1,0,7.739,5.591,5.591,0,0,1-7.735-.005L14.105,21.847a1.554,1.554,0,0,0-2.5.429,22.615,22.615,0,0,0,20.393,32.38Z" transform="translate(-1.111)"/><path class="a" d="M184.687,162.02a22.822,22.822,0,0,0-6.959,1.092l-14.761-14.762-14.625,14.623,14.765,14.765a22.735,22.735,0,0,0,5.534,22.928,22.455,22.455,0,0,0,15.976,6.617,22.856,22.856,0,0,0,9.78-2.21,1.557,1.557,0,0,0,.43-2.5l-14.041-14.048a5.454,5.454,0,0,1,0-7.734,5.59,5.59,0,0,1,7.733,0l14.043,14.041a1.556,1.556,0,0,0,2.5-.429,22.613,22.613,0,0,0-20.384-32.379Z" transform="translate(-82.495 -81.388)"/><path class="a" d="M159.752,48.239s2.443,2.14,4.457,1.14c2.276-1.145,8.69,5.177,10.736,6.657.007,0,.021,0,.045.017l-1.119,1.124a3.755,3.755,0,1,0,5.312,5.308l8.856-8.845a3.759,3.759,0,0,0-5.315-5.318l-1.475,1.474c-1.222-1.683-3.253-4.552-3-5.5,1.08-4.162-7.405-13.994-7.405-13.994C149.776,9.229,135.7,9.708,129,12.011c-2.688.925-2.189,1.51.6,2C149.922,17.559,152.442,29.54,149,34.162c-1.324,1.785.607,3.939.607,3.939l.726.721-34.3,34.3a6.748,6.748,0,0,1,1.316,1l5.77,5.765a6.707,6.707,0,0,1,.99,1.307l34.3-34.3Z" transform="translate(-63.568 -0.899)"/><path class="a" d="M51.468,167.6a3.571,3.571,0,0,0-4.775-.173L8.572,201.607a3,3,0,0,0-.168,4.443l10.383,10.376a3,3,0,0,0,4.439-.155l34.187-38.132a3.565,3.565,0,0,0-.174-4.767Z" transform="translate(0 -92.078)"/></g></svg>